<svg width="244" height="76" viewBox="0 0 244 76" fill="none" xmlns="http://www.w3.org/2000/svg">
<path d="M3.02393 4.12012H10.0799V20.3441H17.9999V4.12012H25.1039V43.0001H17.9999V25.4321H10.0799V43.0001H3.02393V4.12012ZM39.0209 43.4321C35.9489 43.4321 33.6929 42.5841 32.2529 40.8881C30.8129 39.1601 30.0929 36.6161 30.0929 33.2561V25.0001C30.0929 21.6081 30.8129 19.0641 32.2529 17.3681C33.7249 15.6721 35.9809 14.8241 39.0209 14.8241C42.1569 14.8241 44.3649 15.7041 45.6449 17.4641C46.9569 19.2241 47.6129 21.8801 47.6129 25.4321V29.4161H36.5729V34.8881C36.5729 36.2321 36.7649 37.2081 37.1489 37.8161C37.5649 38.4241 38.2049 38.7281 39.0689 38.7281C39.9009 38.7281 40.4929 38.4401 40.8449 37.8641C41.2289 37.2561 41.4209 36.3441 41.4209 35.1281V32.7761H47.5649V34.6961C47.5649 37.5441 46.8449 39.7201 45.4049 41.2241C43.9649 42.6961 41.8369 43.4321 39.0209 43.4321ZM41.4209 26.2001V23.5601C41.4209 22.1201 41.2449 21.0961 40.8929 20.4881C40.5409 19.8481 39.9169 19.5281 39.0209 19.5281C38.0929 19.5281 37.4529 19.8641 37.1009 20.5361C36.7489 21.2081 36.5729 22.4561 36.5729 24.2801V26.2001H41.4209ZM52.4748 4.12012H58.9548V43.0001H52.4748V4.12012ZM64.5685 4.12012H71.0485V43.0001H64.5685V4.12012ZM83.7663 43.4321C81.4303 43.4321 79.5103 42.8081 78.0063 41.5601C76.5023 40.3121 75.4303 38.4881 74.7903 36.0881L79.6383 34.2161C80.3743 37.3201 81.7183 38.8721 83.6703 38.8721C84.4063 38.8721 84.9663 38.6801 85.3503 38.2961C85.7663 37.9121 85.9743 37.3841 85.9743 36.7121C85.9743 35.9761 85.7503 35.3041 85.3023 34.6961C84.8543 34.0561 84.0543 33.2561 82.9023 32.2961L79.5903 29.4161C78.1823 28.2641 77.1423 27.1441 76.4703 26.0561C75.7983 24.9681 75.4623 23.6401 75.4623 22.0721C75.4623 19.8961 76.1983 18.1521 77.6703 16.8401C79.1743 15.4961 81.0623 14.8241 83.3343 14.8241C85.5103 14.8241 87.2863 15.4801 88.6623 16.7921C90.0383 18.0721 90.9343 19.8161 91.3503 22.0241L87.0783 23.8481C86.8223 22.5681 86.3903 21.5281 85.7823 20.7281C85.2063 19.8961 84.4543 19.4801 83.5263 19.4801C82.8543 19.4801 82.3103 19.6881 81.8943 20.1041C81.5103 20.5201 81.3183 21.0481 81.3183 21.6881C81.3183 22.2001 81.5423 22.7441 81.9903 23.3201C82.4383 23.8961 83.1103 24.5681 84.0063 25.3361L87.3663 28.4081C88.8063 29.6561 89.9103 30.8561 90.6783 32.0081C91.4783 33.1281 91.8783 34.4881 91.8783 36.0881C91.8783 38.4241 91.1103 40.2321 89.5743 41.5121C88.0703 42.7921 86.1343 43.4321 83.7663 43.4321ZM107.553 4.12012H117.153C120.833 4.12012 123.649 4.87212 125.601 6.37612C127.553 7.88012 128.529 10.4561 128.529 14.1041C128.529 16.4721 128.049 18.3281 127.089 19.6721C126.129 20.9841 124.737 21.7841 122.913 22.0721C127.393 22.9361 129.633 26.1361 129.633 31.6721C129.633 35.4161 128.721 38.2481 126.897 40.1681C125.073 42.0561 122.369 43.0001 118.785 43.0001H107.553V4.12012ZM117.057 20.0081C119.105 20.0081 120.497 19.5601 121.233 18.6641C122.001 17.7361 122.385 16.2481 122.385 14.2001C122.385 12.2161 121.889 10.8721 120.897 10.1681C119.937 9.43212 118.321 9.06412 116.049 9.06412H114.609V20.0081H117.057ZM117.345 38.0081C119.425 38.0081 120.865 37.5121 121.665 36.5201C122.465 35.5281 122.865 33.8961 122.865 31.6241C122.865 29.2881 122.417 27.5921 121.521 26.5361C120.657 25.4481 119.185 24.9041 117.105 24.9041H114.609V38.0081H117.345ZM142.24 43.4321C139.168 43.4321 136.912 42.5841 135.472 40.8881C134.032 39.1601 133.312 36.6161 133.312 33.2561V25.0001C133.312 21.6081 134.032 19.0641 135.472 17.3681C136.944 15.6721 139.2 14.8241 142.24 14.8241C145.376 14.8241 147.584 15.7041 148.864 17.4641C150.176 19.2241 150.832 21.8801 150.832 25.4321V29.4161H139.792V34.8881C139.792 36.2321 139.984 37.2081 140.368 37.8161C140.784 38.4241 141.424 38.7281 142.288 38.7281C143.12 38.7281 143.712 38.4401 144.064 37.8641C144.448 37.2561 144.64 36.3441 144.64 35.1281V32.7761H150.784V34.6961C150.784 37.5441 150.064 39.7201 148.624 41.2241C147.184 42.6961 145.056 43.4321 142.24 43.4321ZM144.64 26.2001V23.5601C144.64 22.1201 144.464 21.0961 144.112 20.4881C143.76 19.8481 143.136 19.5281 142.24 19.5281C141.312 19.5281 140.672 19.8641 140.32 20.5361C139.968 21.2081 139.792 22.4561 139.792 24.2801V26.2001H144.64ZM155.694 4.12012H162.174V43.0001H155.694V4.12012ZM167.787 4.12012H174.267V43.0001H167.787V4.12012ZM186.985 43.4321C184.649 43.4321 182.729 42.8081 181.225 41.5601C179.721 40.3121 178.649 38.4881 178.009 36.0881L182.857 34.2161C183.593 37.3201 184.937 38.8721 186.889 38.8721C187.625 38.8721 188.185 38.6801 188.569 38.2961C188.985 37.9121 189.193 37.3841 189.193 36.7121C189.193 35.9761 188.969 35.3041 188.521 34.6961C188.073 34.0561 187.273 33.2561 186.121 32.2961L182.809 29.4161C181.401 28.2641 180.361 27.1441 179.689 26.0561C179.017 24.9681 178.681 23.6401 178.681 22.0721C178.681 19.8961 179.417 18.1521 180.889 16.8401C182.393 15.4961 184.281 14.8241 186.553 14.8241C188.729 14.8241 190.505 15.4801 191.881 16.7921C193.257 18.0721 194.153 19.8161 194.569 22.0241L190.297 23.8481C190.041 22.5681 189.609 21.5281 189.001 20.7281C188.425 19.8961 187.673 19.4801 186.745 19.4801C186.073 19.4801 185.529 19.6881 185.113 20.1041C184.729 20.5201 184.537 21.0481 184.537 21.6881C184.537 22.2001 184.761 22.7441 185.209 23.3201C185.657 23.8961 186.329 24.5681 187.225 25.3361L190.585 28.4081C192.025 29.6561 193.129 30.8561 193.897 32.0081C194.697 33.1281 195.097 34.4881 195.097 36.0881C195.097 38.4241 194.329 40.2321 192.793 41.5121C191.289 42.7921 189.353 43.4321 186.985 43.4321Z" fill="#13181B"/>
<path d="M187.408 52.1761H184.312V49.5601H193.984V52.1761H190.96V69.0001H187.408V52.1761ZM197.92 69.2161C197.328 69.2161 196.8 69.0561 196.336 68.7361C195.888 68.4161 195.536 68.0081 195.28 67.5121C195.04 67.0001 194.92 66.4721 194.92 65.9281C194.92 64.8561 195.168 63.9761 195.664 63.2881C196.176 62.5841 196.8 62.0401 197.536 61.6561C198.288 61.2721 199.28 60.8481 200.512 60.3841V59.1841C200.512 58.5441 200.432 58.0801 200.272 57.7921C200.128 57.4881 199.84 57.3361 199.408 57.3361C198.672 57.3361 198.288 57.8481 198.256 58.8721L198.208 59.7121L195.112 59.5921C195.16 57.9921 195.552 56.8161 196.288 56.0641C197.04 55.2961 198.168 54.9121 199.672 54.9121C201.032 54.9121 202.04 55.2881 202.696 56.0401C203.352 56.7761 203.68 57.8241 203.68 59.1841V65.5921C203.68 66.5841 203.76 67.7201 203.92 69.0001H200.992C200.832 68.1361 200.72 67.4721 200.656 67.0081C200.464 67.6321 200.136 68.1601 199.672 68.5921C199.224 69.0081 198.64 69.2161 197.92 69.2161ZM199.12 66.7921C199.392 66.7921 199.648 66.6961 199.888 66.5041C200.144 66.3121 200.352 66.1041 200.512 65.8801V61.9921C199.664 62.4881 199.032 62.9681 198.616 63.4321C198.2 63.8801 197.992 64.4481 197.992 65.1361C197.992 65.6481 198.088 66.0561 198.28 66.3601C198.488 66.6481 198.768 66.7921 199.12 66.7921ZM209.975 69.1681C208.711 69.1681 207.815 68.8641 207.287 68.2561C206.775 67.6481 206.519 66.7441 206.519 65.5441V57.2641H205.127V55.1281H206.519V50.9761H209.807V55.1281H211.895V57.2641H209.807V65.2561C209.807 65.7201 209.903 66.0561 210.095 66.2641C210.303 66.4721 210.623 66.5761 211.055 66.5761C211.455 66.5761 211.791 66.5441 212.063 66.4801V69.0001C211.423 69.1121 210.727 69.1681 209.975 69.1681ZM217.944 69.1681C216.68 69.1681 215.784 68.8641 215.256 68.2561C214.744 67.6481 214.488 66.7441 214.488 65.5441V57.2641H213.096V55.1281H214.488V50.9761H217.776V55.1281H219.864V57.2641H217.776V65.2561C217.776 65.7201 217.872 66.0561 218.064 66.2641C218.272 66.4721 218.592 66.5761 219.023 66.5761C219.424 66.5761 219.76 66.5441 220.032 66.4801V69.0001C219.392 69.1121 218.696 69.1681 217.944 69.1681ZM226.104 69.2161C224.616 69.2161 223.504 68.8081 222.768 67.9921C222.032 67.1601 221.664 65.9601 221.664 64.3921V59.7361C221.664 58.1681 222.032 56.9761 222.768 56.1601C223.504 55.3281 224.616 54.9121 226.104 54.9121C227.592 54.9121 228.704 55.3281 229.44 56.1601C230.192 56.9761 230.568 58.1681 230.568 59.7361V64.3921C230.568 65.9601 230.192 67.1601 229.44 67.9921C228.704 68.8081 227.592 69.2161 226.104 69.2161ZM226.128 66.9601C226.624 66.9601 226.952 66.7681 227.112 66.3841C227.272 65.9841 227.352 65.4001 227.352 64.6321V59.5201C227.352 58.7521 227.272 58.1681 227.112 57.7681C226.952 57.3681 226.624 57.1681 226.128 57.1681C225.616 57.1681 225.28 57.3681 225.12 57.7681C224.96 58.1681 224.88 58.7521 224.88 59.5201V64.6321C224.88 65.4001 224.96 65.9841 225.12 66.3841C225.28 66.7681 225.616 66.9601 226.128 66.9601ZM237.026 69.2161C235.538 69.2161 234.426 68.8081 233.69 67.9921C232.954 67.1601 232.586 65.9601 232.586 64.3921V59.7361C232.586 58.1681 232.954 56.9761 233.69 56.1601C234.426 55.3281 235.538 54.9121 237.026 54.9121C238.514 54.9121 239.626 55.3281 240.362 56.1601C241.114 56.9761 241.49 58.1681 241.49 59.7361V64.3921C241.49 65.9601 241.114 67.1601 240.362 67.9921C239.626 68.8081 238.514 69.2161 237.026 69.2161ZM237.05 66.9601C237.546 66.9601 237.874 66.7681 238.034 66.3841C238.194 65.9841 238.274 65.4001 238.274 64.6321V59.5201C238.274 58.7521 238.194 58.1681 238.034 57.7681C237.874 57.3681 237.546 57.1681 237.05 57.1681C236.538 57.1681 236.202 57.3681 236.042 57.7681C235.882 58.1681 235.802 58.7521 235.802 59.5201V64.6321C235.802 65.4001 235.882 65.9841 236.042 66.3841C236.202 66.7681 236.538 66.9601 237.05 66.9601Z" fill="#13181B"/>
</svg>
